# xmcd
#
# Track frame offsets:
#	150
#	17779
#	35091
#	51828
#	71179
#	85323
#	105529
#	123175
#	140499
#	157245
#	176613
#	190772
#	222435
#
# Disc length: 2985 seconds
#
# Revision: 1
# Processed by: cddbd v1.5.2PL0 Copyright (c) Steve Scherf et al.
# Submitted via: audiograbber 1.83.01
#
DISCID=c00ba70d
DTITLE=Various Artist - CB20556
DYEAR=1900
DGENRE=
TTITLE0=Derrick Rattan - Vocal
TTITLE1=Rick Trevini - Vocal
TTITLE2=Jeff Carson - Vocal
TTITLE3=Josh Turner - Vocal
TTITLE4=Marty Stuart - Vocal
TTITLE5=Rodney Atkins - Vocal
TTITLE6=Derrick Rattan - When You Come Around
TTITLE7=Rick Trevino - In My Dreams
TTITLE8=Jeff Carson - I Can Only Imagine
TTITLE9=Josh turner - Long Black Train
TTITLE10=Marty Stuart - If there ain't There Ought to be
TTITLE11=Rodney Atkins - Honesty Write Me A List
TTITLE12=data track - Data Track
EXTD=
EXTT0=
EXTT1=
EXTT2=
EXTT3=
EXTT4=
EXTT5=
EXTT6=
EXTT7=
EXTT8=
EXTT9=
EXTT10=
EXTT11=
EXTT12=
PLAYORDER=
